<svg width="30" height="30" viewBox="0 0 30 30"><defs><style>.cls-1{fill:#999;fill-rule:evenodd}</style></defs><path id="ic-calendar" class="cls-1" d="M279.061 10232h-28.122a.916.916 0 0 1-.938-.9v-26.3a.916.916 0 0 1 .938-.9h5.624v-1.9h3.75v1.9h9.374v-1.9h3.75v1.9h5.624a.916.916 0 0 1 .938.9v26.3a.916.916 0 0 1-.938.9zm-.937-26.2h-4.687v1.8h-3.75v-1.8h-9.374v1.8h-3.75v-1.8h-4.687v24.3h26.248v-24.3zm-19.686 15h-3.75v-3.8h3.75v3.8zm0 5.6h-3.75v-3.8h3.75v3.8zm5.625-11.3h-3.75v-3.7h3.75v3.7zm0 5.7h-3.75v-3.8h3.75v3.8zm0 5.6h-3.75v-3.8h3.75v3.8zm6.562-4.7H265v-5.6h5.625v5.6zm-.938 4.7h-3.75v-3.8h3.75v3.8zm5.625-11.3h-3.75v-3.7h3.75v3.7zm0 5.7h-3.75v-3.8h3.75v3.8zm-9.375-9.4h3.75v3.7h-3.75v-3.7z" transform="translate(-250 -10202)"/></svg>