<svg width="30" height="30" viewBox="0 0 30 30"><defs><style>.cls-1{fill:#999;fill-rule:evenodd}</style></defs><path id="ic-clock" class="cls-1" d="M590 10232a15 15 0 1 1 15-15 15 15 0 0 1-15 15zm7.154-7.4l-7.154-7.9v-9.3l-1.153-3.5a13.289 13.289 0 0 0-7.685 3.4l1.368 2.8-2.716-1.4a13.205 13.205 0 0 0-2.917 7.2l3.353 1-3.355 1.2a13.15 13.15 0 0 0 2.921 7.2l2.708-1.4-1.362 2.8a13.048 13.048 0 0 0 7.839 3.4l1-3 1 3a13.144 13.144 0 0 0 7.471-3l-1.587-2.7z" transform="translate(-575 -10202)"/></svg>