<svg width="30" height="30" viewBox="0 0 30 30"><defs><style>.cls-1{fill:#999;fill-rule:evenodd}</style></defs><path id="ic-planet" class="cls-1" d="M912 10232a15 15 0 1 1 15-15 14.991 14.991 0 0 1-15 15zm-13.5-14.2l.272.7.011-.3-.29-.5a.156.156 0 0 0 .014.1zm5.727-11.7h-.066a9.22 9.22 0 0 0-1.312 1.1h.073l-.4.3-.049.1.66.4.969-.5.758-.8.018-.7zm1.444-.2l-.506.5v.2h.367l.263-.3.073-.3zm.941-1.2a2.537 2.537 0 0 0-.73.4h.327l.3-.1.164-.2zm.339 1.2l-.083-.1h-.2l-.116.1-1.6 2.2.03-.2.164-.3-.061-.1-.272.2-2.307.4-.417-.2a13.561 13.561 0 0 0-3.627 9.3.191.191 0 0 0 .007.1h.006l.335.1 1.218 2.1 3.668 1.6.5.6.01.7-.457 1.1-.024.6 1.59 3.1.047 1.7a13.213 13.213 0 0 0 2.732 1.2l1.664-2.2 1.48-1 .863-2.9-.677-.5-1.938-.5-1.136-1.5-1.4-.6-3.285-.1-1-1.7h-.262l-.819.4-.294-.3-.057-.5.1-.4.515-.6.612-.4 1.527.3.224.6.473.1-.009-.9 1.28-1.9 2.825-1.6h-.41l-.731-.6 1.857-.5.066.2-.025.1-.115.2-.2.1.146.2h.453l.366-.1-1.218-2.9h-.169l-1.483-.7-.333.3-.865 2.2-.417-.4-.989-.4-.61-.7.72-1.1 2.2-1.7.325-.9 1.014.6.158.4-1.065.8 1.061.7.23-.1h.109l.45-.7-.1-.1.618-.7-.477-.8-1.228-1.1.65-.1-.035-.2h-.356l-1.022.5.329-.5-.689.2-.122 1.7-.545.4-.387-.4zm-.275 3.4l-.114-.3-.125-.2h-.117l-.46.6.083.1h.563zm.516-4.7l-.025.5.494.4.633.1.391-.4h-.235l-.977-.6h-.273zm1.747-.7l-.269.4-.571.4.752-.1 1.456-.9c-.458.1-.913.1-1.361.2zm2.954-.3h-.69l-.176.1-.359.5-.071.4.14.2.979.2.284 1.9-.486 1.1-.117.8.309.9.486.5 3.813-3.3.9-2.4a13.827 13.827 0 0 0-5.005-.9zm4.881 5l-.465.1-.443-.1-.019.5.049.1.6.1.384-.3.114-.3zm-.693 2.3v1.3l.259.7.614-.2.035-.4zm9.133 3.3a13.334 13.334 0 0 0-2.415-5.2h-.085l-.49-.5h.18a10.829 10.829 0 0 0-1.382-1.4l-.414-.1-.753.4-1.976 2.6.092.4.93.7v.4l-2.611 1.9.019.2.211.4.072.3-1.129.5-.088.5.085.8-1.729 3.4-.073 1.5 1.288.7h2.129l.96.3 1.828 6.1a13.659 13.659 0 0 0 5.171-7.4l-.069-.1h.1a14.564 14.564 0 0 0 .457-3.6 12.894 12.894 0 0 0-.265-2.5l-.073-.2zm-1.857 3.6l1.306 2.5-1.619-2.6zm-1.563-3.3l.138-.4.275-.3.308.1 1.277.8.06.2-1.944-.2zm1.362-.5h-.134l-.07-.1.061-.2.157.1h.168l-.05.2h-.132zm-.043 2.6l-2.943.5-.528-.1-1.109-1h-2.452l1.869-1.3h.9l.6.9.114-.1h.09l.122-.2-.047-.4-.625-.4-.077-.3h.3l1.586 1.6h.052l-.04-.6.2.2 2.026.6zm-4.4-4.8l.428-.4 1.627-2.6-.333 1.2.275.3h.654l.147.1-2 1.7zm-14.149 1.3l.215.2-1.034.2.818-.4zm-.124.5l.2.1-.04.2-.476.5.147-.5zm.645 0h.344l-.072.2h.015l-.088.2-.1.1-.115-.1-.13-.1.049-.2z" transform="translate(-897 -10202)"/></svg>