<svg width="13" height="20" viewBox="0 0 13 20"><defs><style>.cls-1{fill:#ef2146;fill-rule:evenodd}</style></defs><path id="ic-phone" class="cls-1" d="M791.491 19770.4c-1.135.5-2.035 1-2.035 1a1.109 1.109 0 0 0-.379 1.4l2.763 6.2a.985.985 0 0 0 1.163.5s.8-.3 1.847-.8a1.188 1.188 0 0 1 1.284.1l1.665 3.7c.557 1.3-.032 1.8-1.893 2.3-3.457.9-6.729-1.1-9.952-9.4a14.142 14.142 0 0 1-.953-4.8 5.7 5.7 0 0 1 4-5.6 1.362 1.362 0 0 1 1.146.6l1.774 3.9a.91.91 0 0 1-.43.9z" transform="translate(-785 -19765)"/></svg>