<svg width="30" height="30" viewBox="0 0 30 30">
<defs>
    <style>
      .cls-1 {
        fill: #999;
        fill-rule: evenodd;
      }
    </style>
  </defs>
  <path id="ic-calendar" class="cls-1" d="M279.061,10232H250.939a0.916,0.916,0,0,1-.938-0.9v-26.3a0.916,0.916,0,0,1,.938-0.9h5.624v-1.9h3.75v1.9h9.374v-1.9h3.75v1.9h5.624a0.916,0.916,0,0,1,.938.9v26.3A0.916,0.916,0,0,1,279.061,10232Zm-0.937-26.2h-4.687v1.8h-3.75v-1.8h-9.374v1.8h-3.75v-1.8h-4.687v24.3h26.248v-24.3Zm-19.686,15h-3.75v-3.8h3.75v3.8Zm0,5.6h-3.75v-3.8h3.75v3.8Zm5.625-11.3h-3.75v-3.7h3.75v3.7Zm0,5.7h-3.75v-3.8h3.75v3.8Zm0,5.6h-3.75v-3.8h3.75v3.8Zm6.562-4.7H265v-5.6h5.625v5.6Zm-0.938,4.7h-3.75v-3.8h3.75v3.8Zm5.625-11.3h-3.75v-3.7h3.75v3.7Zm0,5.7h-3.75v-3.8h3.75v3.8Zm-9.375-9.4h3.75v3.7h-3.75v-3.7Z" transform="translate(-250 -10202)"/>
</svg>
