<svg xmlns="http://www.w3.org/2000/svg" width="30" height="30" viewBox="0 0 30 30">
  <metadata><?xpacket begin="﻿" id="W5M0MpCehiHzreSzNTczkc9d"?>
<x:xmpmeta xmlns:x="adobe:ns:meta/" x:xmptk="Adobe XMP Core 5.6-c138 79.159824, 2016/09/14-01:09:01        ">
   <rdf:RDF xmlns:rdf="http://www.w3.org/1999/02/22-rdf-syntax-ns#">
      <rdf:Description rdf:about=""/>
   </rdf:RDF>
</x:xmpmeta>
                                                                                                    
                                                                                                    
                                                                                                    
                                                                                                    
                                                                                                    
                                                                                                    
                                                                                                    
                                                                                                    
                                                                                                    
                                                                                                    
                                                                                                    
                                                                                                    
                                                                                                    
                                                                                                    
                                                                                                    
                                                                                                    
                                                                                                    
                                                                                                    
                                                                                                    
                                                                                                    
                           
<?xpacket end="w"?></metadata>
<defs>
    <style>
      .cls-1 {
        fill: #999;
        fill-rule: evenodd;
      }
    </style>
  </defs>
  <path id="ic-clock" class="cls-1" d="M590,10232a15,15,0,1,1,15-15A15,15,0,0,1,590,10232Zm7.154-7.4-7.154-7.9v-9.3l-1.153-3.5a13.289,13.289,0,0,0-7.685,3.4l1.368,2.8-2.716-1.4a13.205,13.205,0,0,0-2.917,7.2l3.353,1-3.355,1.2a13.15,13.15,0,0,0,2.921,7.2l2.708-1.4-1.362,2.8a13.048,13.048,0,0,0,7.839,3.4l1-3,1,3a13.144,13.144,0,0,0,7.471-3l-1.587-2.7Z" transform="translate(-575 -10202)"/>
</svg>
