<svg xmlns="http://www.w3.org/2000/svg" width="30" height="30" viewBox="0 0 30 30">
  <metadata><?xpacket begin="﻿" id="W5M0MpCehiHzreSzNTczkc9d"?>
<x:xmpmeta xmlns:x="adobe:ns:meta/" x:xmptk="Adobe XMP Core 5.6-c138 79.159824, 2016/09/14-01:09:01        ">
   <rdf:RDF xmlns:rdf="http://www.w3.org/1999/02/22-rdf-syntax-ns#">
      <rdf:Description rdf:about=""/>
   </rdf:RDF>
</x:xmpmeta>
                                                                                                    
                                                                                                    
                                                                                                    
                                                                                                    
                                                                                                    
                                                                                                    
                                                                                                    
                                                                                                    
                                                                                                    
                                                                                                    
                                                                                                    
                                                                                                    
                                                                                                    
                                                                                                    
                                                                                                    
                                                                                                    
                                                                                                    
                                                                                                    
                                                                                                    
                                                                                                    
                           
<?xpacket end="w"?></metadata>
<defs>
    <style>
      .cls-1 {
        fill: #999;
        fill-rule: evenodd;
      }
    </style>
  </defs>
  <path id="ic-planet" class="cls-1" d="M912,10232a15,15,0,1,1,15-15A14.991,14.991,0,0,1,912,10232Zm-13.5-14.2,0.272,0.7,0.011-.3-0.29-.5A0.156,0.156,0,0,0,898.507,10217.8Zm5.727-11.7h-0.066a9.22,9.22,0,0,0-1.312,1.1h0.073l-0.4.3-0.049.1,0.66,0.4,0.969-.5,0.758-.8,0.018-.7Zm1.444-.2-0.506.5v0.2h0.367l0.263-.3,0.073-.3Zm0.941-1.2a2.537,2.537,0,0,0-.73.4h0.327l0.3-.1,0.164-.2Zm0.339,1.2-0.083-.1h-0.2l-0.116.1-1.6,2.2,0.03-.2,0.164-.3-0.061-.1-0.272.2-2.307.4-0.417-.2a13.561,13.561,0,0,0-3.627,9.3,0.191,0.191,0,0,0,.007.1h0.006l0.335,0.1,1.218,2.1,3.668,1.6,0.5,0.6,0.01,0.7-0.457,1.1-0.024.6,1.59,3.1,0.047,1.7a13.213,13.213,0,0,0,2.732,1.2l1.664-2.2,1.48-1,0.863-2.9-0.677-.5-1.938-.5-1.136-1.5-1.4-.6-3.285-.1-1-1.7h-0.262l-0.819.4-0.294-.3-0.057-.5,0.1-.4,0.515-.6,0.612-.4,1.527,0.3,0.224,0.6,0.473,0.1-0.009-.9,1.28-1.9,2.825-1.6h-0.41l-0.731-.6,1.857-.5,0.066,0.2-0.025.1-0.115.2-0.2.1,0.146,0.2h0.453l0.366-.1-1.218-2.9h-0.169l-1.483-.7-0.333.3-0.865,2.2-0.417-.4-0.989-.4-0.61-.7,0.72-1.1,2.2-1.7,0.325-.9,1.014,0.6,0.158,0.4-1.065.8,1.061,0.7,0.23-.1h0.109l0.45-.7-0.1-.1,0.618-.7-0.477-.8-1.228-1.1,0.65-.1-0.035-.2h-0.356l-1.022.5,0.329-.5-0.689.2-0.122,1.7-0.545.4-0.387-.4Zm-0.275,3.4-0.114-.3-0.125-.2H906.32l-0.46.6,0.083,0.1h0.563Zm0.516-4.7-0.025.5,0.494,0.4,0.633,0.1,0.391-.4h-0.235l-0.977-.6H907.2Zm1.747-.7-0.269.4-0.571.4,0.752-.1,1.456-.9C909.849,10203.8,909.394,10203.8,908.946,10203.9Zm2.954-.3h-0.69l-0.176.1-0.359.5-0.071.4,0.14,0.2,0.979,0.2,0.284,1.9-0.486,1.1-0.117.8,0.309,0.9,0.486,0.5,3.813-3.3,0.9-2.4A13.827,13.827,0,0,0,911.9,10203.6Zm4.881,5-0.465.1-0.443-.1-0.019.5,0.049,0.1,0.6,0.1,0.384-.3,0.114-.3Zm-0.693,2.3,0,1.3,0.259,0.7,0.614-.2,0.035-.4Zm9.133,3.3a13.334,13.334,0,0,0-2.415-5.2h-0.085l-0.49-.5h0.18a10.829,10.829,0,0,0-1.382-1.4l-0.414-.1-0.753.4-1.976,2.6,0.092,0.4,0.93,0.7v0.4l-2.611,1.9,0.019,0.2,0.211,0.4,0.072,0.3-1.129.5-0.088.5,0.085,0.8-1.729,3.4-0.073,1.5,1.288,0.7h2.129l0.96,0.3,1.828,6.1a13.659,13.659,0,0,0,5.171-7.4l-0.069-.1h0.1a14.564,14.564,0,0,0,.457-3.6,12.894,12.894,0,0,0-.265-2.5l-0.073-.2Zm-1.857,3.6,1.306,2.5-1.619-2.6Zm-1.563-3.3,0.138-.4,0.275-.3,0.308,0.1,1.277,0.8,0.06,0.2-1.944-.2Zm1.362-.5h-0.134l-0.07-.1,0.061-.2,0.157,0.1h0.168l-0.05.2h-0.132Zm-0.043,2.6-2.943.5-0.528-.1-1.109-1h-2.452l1.869-1.3h0.9l0.6,0.9,0.114-.1h0.09l0.122-.2-0.047-.4-0.625-.4-0.077-.3h0.3l1.586,1.6h0.052l-0.04-.6,0.2,0.2,2.026,0.6Zm-4.4-4.8,0.428-.4,1.627-2.6-0.333,1.2,0.275,0.3h0.654l0.147,0.1-2,1.7Zm-14.149,1.3,0.215,0.2-1.034.2,0.818-.4h0Zm-0.124.5,0.2,0.1-0.04.2-0.476.5,0.147-.5Zm0.645,0h0.344l-0.072.2h0.015l-0.088.2-0.1.1-0.115-.1-0.13-.1,0.049-.2Z" transform="translate(-897 -10202)"/>
</svg>
